<svg version="1.1" id="Layer_1" xmlns="http://www.w3.org/2000/svg" xmlns:xlink="http://www.w3.org/1999/xlink" x="0px" y="0px"
	 width="100%" viewBox="0 0 1200 1200" enable-background="new 0 0 1200 1200" xml:space="preserve">
<path fill="#000000" opacity="1.000000" stroke="none" 
	d="
M1.000000,11.000000 
	C1.000000,9.933352 1.000000,8.866702 1.430705,7.386698 
	C7.173552,6.648754 12.485662,6.040610 17.797840,6.039998 
	C406.409210,5.995214 795.020569,5.998558 1183.631958,5.999597 
	C1185.298218,5.999601 1186.967285,5.964739 1188.630371,6.044360 
	C1194.633667,6.331794 1196.228271,8.072301 1195.915649,14.183404 
	C1195.703003,18.335648 1195.048462,22.479029 1195.047974,26.626423 
	C1195.006836,405.572479 1195.009155,784.518555 1195.024536,1163.464600 
	C1195.024658,1165.957397 1195.065063,1168.475830 1195.410522,1170.936768 
	C1195.859985,1174.138916 1197.356445,1176.623291 1201.000000,1177.000000 
	C1201.000000,1184.997192 1201.000000,1192.994507 1201.000000,1200.960693 
	C801.000000,1200.960693 401.000000,1200.960693 1.000000,1200.960693 
	C1.000000,1192.924194 1.000000,1184.927124 1.365892,1176.395752 
	C7.799864,1174.042603 5.927785,1168.921997 5.928580,1164.952637 
	C6.004798,784.069885 5.999689,403.187103 5.996935,22.304325 
	C5.996922,20.471916 5.972852,18.639141 5.931594,16.807177 
	C5.858156,13.546328 4.444620,11.406338 1.000000,11.000000 
M684.208496,566.168884 
	C683.441895,567.006714 682.675293,567.844543 681.535950,569.256592 
	C678.597717,572.143005 675.659485,575.029419 672.142151,578.172607 
	C670.400330,580.026978 668.658508,581.881409 666.551147,584.308960 
	C663.953186,586.850220 661.355225,589.391479 658.320496,592.206055 
	C657.855042,592.702087 657.389526,593.198120 656.554504,594.271240 
	C652.600159,598.150574 648.645813,602.029907 644.180054,606.164795 
	C643.421265,606.992615 642.662476,607.820374 641.531372,609.228333 
	C637.419189,613.093994 633.175842,616.830688 629.221741,620.851746 
	C620.587036,629.632690 612.250549,638.710327 603.519287,647.392212 
	C586.753235,664.063477 569.728333,680.474243 552.940491,697.123840 
	C537.571655,712.366089 522.433472,727.840942 507.075500,743.094299 
	C499.402130,750.715393 491.474945,758.081299 483.642212,765.541260 
	C480.115967,768.899780 478.243591,772.863281 479.851135,777.676208 
	C481.277893,781.947876 485.120300,781.589905 488.655579,781.589417 
	C622.142761,781.571472 755.629883,781.559082 889.117065,781.537476 
	C891.281982,781.537109 893.456848,781.542053 895.609558,781.349060 
	C899.559753,780.994995 902.245178,778.596436 901.449280,774.806702 
	C900.717712,771.323608 898.501526,768.081970 896.588501,764.948120 
	C895.680054,763.459961 893.856201,762.562988 892.614014,761.241272 
	C880.203796,748.035278 867.974854,734.655518 855.411011,721.597900 
	C832.676025,697.969666 809.757812,674.517639 786.874329,651.032654 
	C785.392517,649.511902 783.554565,648.338257 781.713257,646.159424 
	C781.631714,626.191406 781.511292,606.223450 781.477173,586.255371 
	C781.417725,551.476379 781.411438,516.697266 781.797485,481.403473 
	C781.968689,480.543549 782.139893,479.683624 782.357605,478.283386 
	C779.381836,472.587250 775.872253,472.701996 771.474976,479.090851 
	C771.166504,479.375641 770.858093,479.660431 769.966675,480.199982 
	C765.283020,485.047363 760.599426,489.894775 755.546387,495.157227 
	C755.275146,495.409241 755.003967,495.661255 754.141602,496.168823 
	C751.735535,498.704041 749.329468,501.239258 746.567688,504.278412 
	C745.953125,504.827576 745.338501,505.376770 744.114868,506.171112 
	C734.718201,515.670044 725.321594,525.168945 715.565125,535.203491 
	C714.941406,535.773315 714.317627,536.343140 713.181030,537.173767 
	C712.427307,538.031006 711.673584,538.888306 710.563721,540.173950 
	C710.290710,540.427063 710.017700,540.680237 709.166077,541.160522 
	C708.086792,542.351562 707.007507,543.542603 705.588623,545.261230 
	C704.974182,545.817383 704.359680,546.373535 703.137024,547.173584 
	C700.735168,549.693237 698.333313,552.212830 695.574036,555.177429 
	C695.290405,555.427979 695.006775,555.678589 694.145569,556.158691 
	C693.074951,557.358093 692.004333,558.557495 690.555481,560.194946 
	C690.255249,560.438721 689.955017,560.682495 689.090454,561.164307 
	C688.037964,562.355835 686.985413,563.547302 685.566284,565.166809 
	C685.287720,565.416870 685.009216,565.666992 684.208496,566.168884 
M377.514954,503.999054 
	C389.607056,516.403992 401.495239,529.017944 413.892700,541.109741 
	C418.776489,545.873108 420.256073,550.956482 420.227661,557.544495 
	C420.006836,608.701965 420.028046,659.860718 420.177551,711.018555 
	C420.186523,714.088623 421.938202,717.153564 422.878937,720.220825 
	C425.643494,718.679932 428.930298,717.665222 431.093475,715.518372 
	C458.880554,687.940308 486.489594,660.183044 514.179077,632.506470 
	C547.521973,599.179016 580.890808,565.877502 614.263428,532.579834 
	C636.545471,510.347839 658.831299,488.119629 681.159302,465.933868 
	C692.967834,454.200562 704.934326,442.625549 716.680542,430.830688 
	C719.284119,428.216370 722.678040,425.425049 720.864258,420.950775 
	C719.367371,417.258057 715.830322,417.700684 712.667419,417.701660 
	C584.188232,417.740814 455.709076,417.783752 327.229919,417.828064 
	C320.903320,417.830261 314.570679,417.680206 308.251770,417.906219 
	C301.559967,418.145569 299.558777,422.043274 303.385956,427.437103 
	C305.290527,430.121307 307.795380,432.392212 310.109833,434.771118 
	C332.403809,457.686279 354.715088,480.584595 377.514954,503.999054 
z"/>
<path fill="#0A0A0A" opacity="1.000000" stroke="none" 
	d="
M1201.000000,1176.531372 
	C1197.356445,1176.623291 1195.859985,1174.138916 1195.410522,1170.936768 
	C1195.065063,1168.475830 1195.024658,1165.957397 1195.024536,1163.464600 
	C1195.009155,784.518555 1195.006836,405.572479 1195.047974,26.626423 
	C1195.048462,22.479029 1195.703003,18.335648 1195.915649,14.183404 
	C1196.228271,8.072301 1194.633667,6.331794 1188.630371,6.044360 
	C1186.967285,5.964739 1185.298218,5.999601 1183.631958,5.999597 
	C795.020569,5.998558 406.409210,5.995214 17.797840,6.039998 
	C12.485662,6.040610 7.173552,6.648754 1.430705,6.986670 
	C1.000000,5.000367 1.000000,3.000733 1.000000,1.000825 
	C400.926300,1.000550 800.852600,1.000550 1201.000000,1.000550 
	C1201.000000,392.687561 1201.000000,784.375122 1201.000000,1176.531372 
z"/>
<path fill="#0A0A0A" opacity="1.000000" stroke="none" 
	d="
M1.000000,11.468657 
	C4.444620,11.406338 5.858156,13.546328 5.931594,16.807177 
	C5.972852,18.639141 5.996922,20.471916 5.996935,22.304325 
	C5.999689,403.187103 6.004798,784.069885 5.928580,1164.952637 
	C5.927785,1168.921997 7.799864,1174.042603 1.365892,1175.930664 
	C1.000000,787.979126 1.000000,399.958221 1.000000,11.468657 
z"/>
<path fill="#6F706F" opacity="1.000000" stroke="none" 
	d="
M377.268188,503.743378 
	C354.715088,480.584595 332.403809,457.686279 310.109833,434.771118 
	C307.795380,432.392212 305.290527,430.121307 303.385956,427.437103 
	C299.558777,422.043274 301.559967,418.145569 308.251770,417.906219 
	C314.570679,417.680206 320.903320,417.830261 327.229919,417.828064 
	C455.709076,417.783752 584.188232,417.740814 712.667419,417.701660 
	C715.830322,417.700684 719.367371,417.258057 720.864258,420.950775 
	C722.678040,425.425049 719.284119,428.216370 716.680542,430.830688 
	C704.934326,442.625549 692.967834,454.200562 681.159302,465.933868 
	C658.831299,488.119629 636.545471,510.347839 614.263428,532.579834 
	C580.890808,565.877502 547.521973,599.179016 514.179077,632.506470 
	C486.489594,660.183044 458.880554,687.940308 431.093475,715.518372 
	C428.930298,717.665222 425.643494,718.679932 422.878967,720.220825 
	C421.938202,717.153564 420.186523,714.088623 420.177551,711.018555 
	C420.028046,659.860718 420.006836,608.701965 420.227661,557.544495 
	C420.256073,550.956482 418.776489,545.873108 413.892700,541.109741 
	C401.495239,529.017944 389.607056,516.403992 377.268188,503.743378 
M418.934265,541.650024 
	C422.968079,545.942993 422.920990,551.317383 422.921021,556.681030 
	C422.921356,606.666931 422.922394,656.652893 422.926086,706.638794 
	C422.926178,707.804749 422.865875,708.980957 422.993408,710.134705 
	C423.421722,714.009705 425.656067,715.149963 428.731476,712.781494 
	C430.950806,711.072205 432.725525,708.790649 434.727478,706.793335 
	C505.734924,635.950867 576.728333,565.094299 647.766663,494.282745 
	C669.239563,472.878387 690.871704,451.633545 712.304688,430.189484 
	C713.748840,428.744598 714.124451,426.231659 714.997009,424.215485 
	C712.954346,423.490021 710.925415,422.187469 708.866638,422.138519 
	C699.708130,421.920746 690.541016,422.065826 681.377014,422.072662 
	C558.248535,422.164856 435.120056,422.250793 311.991638,422.406219 
	C310.502350,422.408112 308.236053,422.902435 307.734253,423.883728 
	C307.181915,424.963989 308.060486,426.956451 308.680420,428.394226 
	C309.118317,429.409698 310.131592,430.194519 310.942749,431.029114 
	C328.930328,449.537170 346.897156,468.065521 364.927490,486.531891 
	C382.729523,504.764526 400.597198,522.933105 418.934265,541.650024 
z"/>
<path fill="#333333" opacity="1.000000" stroke="none" 
	d="
M781.882324,647.003113 
	C783.554565,648.338257 785.392517,649.511902 786.874329,651.032654 
	C809.757812,674.517639 832.676025,697.969666 855.411011,721.597900 
	C867.974854,734.655518 880.203796,748.035278 892.614014,761.241272 
	C893.856201,762.562988 895.680054,763.459961 896.588501,764.948120 
	C898.501526,768.081970 900.717712,771.323608 901.449280,774.806702 
	C902.245178,778.596436 899.559753,780.994995 895.609558,781.349060 
	C893.456848,781.542053 891.281982,781.537109 889.117065,781.537476 
	C755.629883,781.559082 622.142761,781.571472 488.655579,781.589417 
	C485.120300,781.589905 481.277893,781.947876 479.851135,777.676208 
	C478.243591,772.863281 480.115967,768.899780 483.642212,765.541260 
	C491.474945,758.081299 499.402130,750.715393 507.075500,743.094299 
	C522.433472,727.840942 537.571655,712.366089 552.940491,697.123840 
	C569.728333,680.474243 586.753235,664.063477 603.519287,647.392212 
	C612.250549,638.710327 620.587036,629.632690 629.221741,620.851746 
	C633.175842,616.830688 637.419189,613.093994 642.012085,608.945923 
	C643.048157,608.500183 643.603455,608.336792 644.408936,608.416870 
	C644.825806,608.822693 644.992554,608.984985 645.011047,609.447876 
	C635.237244,619.435547 625.646301,629.157288 615.979919,638.803467 
	C577.080200,677.622070 538.157166,716.417419 498.955719,755.308960 
	C498.144440,755.964539 497.620178,756.532532 497.049194,757.051453 
	C497.002441,757.002441 497.100830,757.095703 496.825867,757.215149 
	C496.105499,757.967896 495.660095,758.601196 495.029846,759.507568 
	C491.892944,762.518066 488.940887,765.255432 485.684937,768.142273 
	C484.484192,770.559143 483.587341,772.826538 482.690491,775.093933 
	C484.460114,775.731567 486.229706,776.369141 488.399658,777.006470 
	C489.867584,777.011475 490.935150,777.016785 492.374817,777.197266 
	C495.559387,777.557983 498.371796,777.905579 501.184265,777.906006 
	C630.608582,777.924561 760.032837,777.914856 889.457153,777.885071 
	C891.442139,777.884644 893.596436,778.028931 895.374451,777.339233 
	C898.472107,776.137573 900.156311,774.060974 896.825195,770.885010 
	C896.743835,770.713623 896.620117,770.355103 896.595703,770.053467 
	C896.101685,769.136597 895.632080,768.521484 894.907837,767.683167 
	C893.027710,765.847839 891.461548,764.169983 889.765137,762.636230 
	C885.349365,758.643860 880.876343,754.714722 876.300476,750.586060 
	C876.174805,750.411865 875.896667,750.084412 875.966064,749.733398 
	C874.605164,747.345276 873.174805,745.308105 871.677490,742.946533 
	C870.483643,741.688416 869.356567,740.754700 868.044434,739.656982 
	C867.618652,739.266968 867.390564,739.028931 867.097290,738.459656 
	C865.948730,737.166443 864.877991,736.192505 863.855835,735.163879 
	C863.904541,735.109131 863.788391,735.198242 863.689087,734.909607 
	C862.824158,734.011108 862.058655,733.401184 861.044678,732.559021 
	C858.278320,729.688171 855.775574,727.034851 853.240051,724.413330 
	C830.468933,700.869629 807.654724,677.367310 784.995789,653.716064 
	C783.381348,652.030884 782.893860,649.265991 781.882324,647.003113 
z"/>
<path fill="#858585" opacity="1.000000" stroke="none" 
	d="
M876.426147,750.760315 
	C880.876343,754.714722 885.349365,758.643860 889.765137,762.636230 
	C891.461548,764.169983 893.027710,765.847839 894.951843,767.976501 
	C895.707031,769.113647 896.163574,769.734375 896.620117,770.355103 
	C896.620117,770.355103 896.743835,770.713623 896.722656,771.238770 
	C895.787292,776.706604 891.937195,776.036072 888.473694,776.037048 
	C758.603333,776.074097 628.732910,776.099915 498.862549,776.172607 
	C496.575775,776.173889 494.289307,776.726685 492.002716,777.022156 
	C490.935150,777.016785 489.867584,777.011475 488.173767,776.771362 
	C483.012726,774.421143 485.244934,771.071228 485.988861,767.992798 
	C488.940887,765.255432 491.892944,762.518066 495.293427,759.373596 
	C496.194855,758.342896 496.647858,757.719299 497.100830,757.095703 
	C497.100830,757.095703 497.002441,757.002441 497.328857,756.954224 
	C498.184448,756.344482 498.713593,755.782898 499.242737,755.221313 
	C538.157166,716.417419 577.080200,677.622070 615.979919,638.803467 
	C625.646301,629.157288 635.237244,619.435547 645.308105,609.297119 
	C650.406433,604.112854 655.059387,599.380005 659.994507,594.492004 
	C663.469849,590.862244 666.663025,587.387695 670.122437,583.749268 
	C671.222900,582.662292 672.057007,581.739258 673.231995,580.789734 
	C677.440796,576.896973 681.308655,573.030579 685.466553,569.019897 
	C686.784851,567.544312 687.813110,566.213074 689.048889,564.744507 
	C689.516296,564.392639 689.723511,564.135681 690.211792,563.811157 
	C691.647766,562.487244 692.750061,561.188416 694.060059,559.753967 
	C694.528503,559.406616 694.736877,559.152039 695.226746,558.827515 
	C696.663208,557.500427 697.765991,556.200562 699.144653,554.725769 
	C700.904480,552.976501 702.388611,551.402222 704.210083,549.801514 
	C705.976868,548.142517 707.406311,546.509949 709.046021,544.743469 
	C709.520447,544.398499 709.729431,544.142456 710.210510,543.819275 
	C711.768372,542.609985 712.998962,541.422852 714.524902,540.088989 
	C716.167664,538.260376 717.515137,536.578552 719.145020,534.719604 
	C723.921753,529.979858 728.416016,525.417114 733.251709,520.857910 
	C734.677307,519.537598 735.761536,518.213806 736.877197,516.898743 
	C736.908630,516.907471 736.890259,516.844910 737.236328,516.846436 
	C747.264709,507.360962 756.951965,497.878937 766.605408,488.362488 
	C766.895508,488.076447 766.830566,487.430206 766.953369,486.959717 
	C766.975647,486.967529 766.949280,486.933319 767.289124,486.920227 
	C768.680237,485.567963 769.731506,484.228729 770.916382,482.752563 
	C771.049988,482.615570 771.221130,482.273254 771.582275,482.245850 
	C775.039917,480.544067 778.150879,479.328125 781.382935,481.918243 
	C781.411438,516.697266 781.417725,551.476379 781.477173,586.255371 
	C781.511292,606.223450 781.631714,626.191406 781.797791,646.581299 
	C782.893860,649.265991 783.381348,652.030884 784.995789,653.716064 
	C807.654724,677.367310 830.468933,700.869629 853.240051,724.413330 
	C855.775574,727.034851 858.278320,729.688171 861.140991,732.846985 
	C862.253235,733.977539 863.020813,734.587891 863.788391,735.198242 
	C863.788391,735.198242 863.904541,735.109131 863.968994,735.456787 
	C865.080627,736.795898 866.127808,737.787415 867.174988,738.778931 
	C867.390564,739.028931 867.618652,739.266968 868.114624,739.929077 
	C868.631531,740.860962 868.893250,741.356873 868.956665,742.045776 
	C868.627869,742.369263 868.497375,742.499634 868.064575,742.487427 
	C862.362732,736.923950 856.924438,731.540894 851.570496,726.075317 
	C830.825745,704.898315 810.308777,683.492676 789.274902,662.607239 
	C781.535767,654.922607 777.801331,646.666077 778.175232,635.608276 
	C778.805725,616.967346 778.259827,598.288269 778.293396,579.625305 
	C778.347290,549.634583 778.495728,519.643982 778.494019,489.653290 
	C778.493958,488.027985 777.481262,486.402710 776.939941,484.777405 
	C775.063110,485.598541 772.730835,485.961517 771.376160,487.308014 
	C740.178711,518.317078 709.102783,549.448364 677.973389,580.525940 
	C617.007080,641.390808 556.023254,702.238220 495.037018,763.083130 
	C493.387177,764.729187 491.416626,766.099487 489.993622,767.910950 
	C489.075562,769.079651 488.358795,770.904236 488.577972,772.270203 
	C488.697449,773.014893 490.918182,773.556702 492.263885,773.924377 
	C493.195007,774.178833 494.250244,773.982300 495.250000,773.981812 
	C594.897827,773.938782 694.545715,773.909790 794.193542,773.843201 
	C825.185852,773.822449 856.178223,773.726929 887.169983,773.554321 
	C888.964111,773.544312 890.752625,772.528687 892.543823,771.981079 
	C891.794250,770.214478 891.430420,768.104919 890.222351,766.746033 
	C886.684326,762.766174 882.734802,759.154968 879.111145,755.246643 
	C877.951904,753.996216 877.306641,752.269226 876.426147,750.760315 
z"/>
<path fill="#0A0A0A" opacity="1.000000" stroke="none" 
	d="
M732.910278,520.854370 
	C728.416016,525.417114 723.921753,529.979858 718.782837,534.647705 
	C717.400513,534.724609 716.662720,534.696289 715.924927,534.667908 
	C725.321594,525.168945 734.718201,515.670044 744.349121,506.372192 
	C742.018982,509.997162 739.454651,513.421021 736.890259,516.844910 
	C736.890259,516.844910 736.908630,516.907471 736.541687,516.927307 
	C735.086609,518.249573 733.998413,519.551941 732.910278,520.854370 
z"/>
<path fill="#333333" opacity="1.000000" stroke="none" 
	d="
M737.236328,516.846436 
	C739.454651,513.421021 742.018982,509.997162 744.653625,506.249634 
	C745.338501,505.376770 745.953125,504.827576 747.066895,503.941467 
	C749.954956,501.040741 752.343811,498.477020 754.732666,495.913269 
	C755.003967,495.661255 755.275146,495.409241 756.055664,494.874817 
	C760.020325,492.045563 763.475769,489.498749 766.931152,486.951904 
	C766.830566,487.430206 766.895508,488.076447 766.605408,488.362488 
	C756.951965,497.878937 747.264709,507.360962 737.236328,516.846436 
z"/>
<path fill="#0A0A0A" opacity="1.000000" stroke="none" 
	d="
M766.953369,486.959717 
	C763.475769,489.498749 760.020325,492.045563 756.240356,494.667267 
	C760.599426,489.894775 765.283020,485.047363 770.359314,480.464111 
	C770.908386,481.243225 771.064758,481.758240 771.221130,482.273254 
	C771.221130,482.273254 771.049988,482.615570 770.583801,482.791077 
	C769.061523,484.288788 768.005371,485.611053 766.949280,486.933319 
	C766.949280,486.933319 766.975647,486.967529 766.953369,486.959717 
z"/>
<path fill="#333333" opacity="1.000000" stroke="none" 
	d="
M659.712341,594.647217 
	C655.059387,599.380005 650.406433,604.112854 645.456421,608.996460 
	C644.992554,608.984985 644.825806,608.822693 644.523315,608.150635 
	C644.488831,607.063721 644.590149,606.486450 644.691467,605.909241 
	C648.645813,602.029907 652.600159,598.150574 657.023560,593.997925 
	C657.868469,593.690186 658.244202,593.655640 658.891663,593.879150 
	C659.346313,594.307129 659.529297,594.477173 659.712341,594.647217 
z"/>
<path fill="#333333" opacity="1.000000" stroke="none" 
	d="
M771.582275,482.245850 
	C771.064758,481.758240 770.908386,481.243225 770.650757,480.336731 
	C770.858093,479.660431 771.166504,479.375641 772.022827,478.823669 
	C775.867493,476.821259 779.151917,475.539001 782.311096,478.823700 
	C782.139893,479.683624 781.968689,480.543549 781.590210,481.660858 
	C778.150879,479.328125 775.039917,480.544067 771.582275,482.245850 
z"/>
<path fill="#333333" opacity="1.000000" stroke="none" 
	d="
M685.176575,569.164246 
	C681.308655,573.030579 677.440796,576.896973 673.161377,580.432617 
	C672.740356,579.373169 672.730774,578.644470 672.721191,577.915771 
	C675.659485,575.029419 678.597717,572.143005 682.017944,568.969971 
	C683.056824,568.516907 683.613708,568.350464 684.422119,568.429138 
	C684.841309,568.837585 685.008972,569.000916 685.176575,569.164246 
z"/>
<path fill="#0A0A0A" opacity="1.000000" stroke="none" 
	d="
M703.872742,549.827942 
	C702.388611,551.402222 700.904480,552.976501 698.782715,554.654419 
	C697.407104,554.749573 696.669250,554.741028 695.931396,554.732483 
	C698.333313,552.212830 700.735168,549.693237 703.450928,547.415649 
	C703.800781,548.381165 703.836731,549.104553 703.872742,549.827942 
z"/>
<path fill="#0A0A0A" opacity="1.000000" stroke="none" 
	d="
M782.334351,478.553528 
	C779.151917,475.539001 775.867493,476.821259 772.232361,478.590973 
	C775.872253,472.701996 779.381836,472.587250 782.334351,478.553528 
z"/>
<path fill="#333333" opacity="1.000000" stroke="none" 
	d="
M669.856201,583.913208 
	C666.663025,587.387695 663.469849,590.862244 659.994507,594.492004 
	C659.529297,594.477173 659.346313,594.307129 658.932617,593.601013 
	C658.720276,592.687500 658.738708,592.310120 658.757202,591.932739 
	C661.355225,589.391479 663.953186,586.850220 667.103699,584.035583 
	C668.389587,583.812561 669.122864,583.862915 669.856201,583.913208 
z"/>
<path fill="#0A0A0A" opacity="1.000000" stroke="none" 
	d="
M670.122437,583.749268 
	C669.122864,583.862915 668.389587,583.812561 667.286499,583.749023 
	C668.658508,581.881409 670.400330,580.026978 672.431641,578.044189 
	C672.730774,578.644470 672.740356,579.373169 672.820557,580.458984 
	C672.057007,581.739258 671.222900,582.662292 670.122437,583.749268 
z"/>
<path fill="#0A0A0A" opacity="1.000000" stroke="none" 
	d="
M754.437134,496.041046 
	C752.343811,498.477020 749.954956,501.040741 747.244751,503.689514 
	C749.329468,501.239258 751.735535,498.704041 754.437134,496.041046 
z"/>
<path fill="#0A0A0A" opacity="1.000000" stroke="none" 
	d="
M689.878174,563.836243 
	C689.723511,564.135681 689.516296,564.392639 688.690308,564.675415 
	C687.393799,564.742126 686.663391,564.740479 685.932861,564.738831 
	C686.985413,563.547302 688.037964,562.355835 689.404785,561.409912 
	C689.772156,562.382385 689.825134,563.109314 689.878174,563.836243 
z"/>
<path fill="#0A0A0A" opacity="1.000000" stroke="none" 
	d="
M709.883240,543.841431 
	C709.729431,544.142456 709.520447,544.398499 708.687744,544.674316 
	C707.388794,544.737244 706.658508,544.735413 705.928223,544.733643 
	C707.007507,543.542603 708.086792,542.351562 709.464722,541.412354 
	C709.803345,542.389893 709.843262,543.115662 709.883240,543.841431 
z"/>
<path fill="#0A0A0A" opacity="1.000000" stroke="none" 
	d="
M694.893066,558.854675 
	C694.736877,559.152039 694.528503,559.406616 693.700195,559.685486 
	C692.399597,559.754028 691.666626,559.755432 690.933655,559.756836 
	C692.004333,558.557495 693.074951,557.358093 694.448486,556.411499 
	C694.798584,557.394409 694.845825,558.124573 694.893066,558.854675 
z"/>
<path fill="#333333" opacity="1.000000" stroke="none" 
	d="
M705.758423,544.997437 
	C706.658508,544.735413 707.388794,544.737244 708.477417,544.808228 
	C707.406311,546.509949 705.976868,548.142517 704.210083,549.801514 
	C703.836731,549.104553 703.800781,548.381165 703.755005,547.293762 
	C704.359680,546.373535 704.974182,545.817383 705.758423,544.997437 
z"/>
<path fill="#333333" opacity="1.000000" stroke="none" 
	d="
M715.744995,534.935669 
	C716.662720,534.696289 717.400513,534.724609 718.500427,534.824829 
	C717.515137,536.578552 716.167664,538.260376 714.270752,539.833008 
	C713.551941,539.553406 713.382629,539.382874 713.317261,538.937622 
	C713.512024,538.079529 713.602966,537.496216 713.693909,536.912964 
	C714.317627,536.343140 714.941406,535.773315 715.744995,534.935669 
z"/>
<path fill="#333333" opacity="1.000000" stroke="none" 
	d="
M695.226746,558.827515 
	C694.845825,558.124573 694.798584,557.394409 694.737305,556.296753 
	C695.006775,555.678589 695.290405,555.427979 695.752686,554.954956 
	C696.669250,554.741028 697.407104,554.749573 698.506897,554.829468 
	C697.765991,556.200562 696.663208,557.500427 695.226746,558.827515 
z"/>
<path fill="#333333" opacity="1.000000" stroke="none" 
	d="
M690.744568,559.975891 
	C691.666626,559.755432 692.399597,559.754028 693.492432,559.821106 
	C692.750061,561.188416 691.647766,562.487244 690.211792,563.811157 
	C689.825134,563.109314 689.772156,562.382385 689.686951,561.290894 
	C689.955017,560.682495 690.255249,560.438721 690.744568,559.975891 
z"/>
<path fill="#333333" opacity="1.000000" stroke="none" 
	d="
M710.210510,543.819275 
	C709.843262,543.115662 709.803345,542.389893 709.754028,541.298706 
	C710.017700,540.680237 710.290710,540.427063 711.040771,539.944275 
	C712.083008,539.547241 712.648193,539.379822 713.213318,539.212402 
	C713.382629,539.382874 713.551941,539.553406 713.975464,539.979858 
	C712.998962,541.422852 711.768372,542.609985 710.210510,543.819275 
z"/>
<path fill="#333333" opacity="1.000000" stroke="none" 
	d="
M685.749634,564.952881 
	C686.663391,564.740479 687.393799,564.742126 688.482788,564.812805 
	C687.813110,566.213074 686.784851,567.544312 685.466553,569.019897 
	C685.008972,569.000916 684.841309,568.837585 684.537354,568.162231 
	C684.510986,567.072571 684.620789,566.494812 684.730591,565.917053 
	C685.009216,565.666992 685.287720,565.416870 685.749634,564.952881 
z"/>
<path fill="#0A0A0A" opacity="1.000000" stroke="none" 
	d="
M644.435791,606.036987 
	C644.590149,606.486450 644.488831,607.063721 644.273193,607.907227 
	C643.603455,608.336792 643.048157,608.500183 642.198242,608.655823 
	C642.662476,607.820374 643.421265,606.992615 644.435791,606.036987 
z"/>
<path fill="#0A0A0A" opacity="1.000000" stroke="none" 
	d="
M713.317261,538.937622 
	C712.648193,539.379822 712.083008,539.547241 711.218872,539.730103 
	C711.673584,538.888306 712.427307,538.031006 713.437500,537.043335 
	C713.602966,537.496216 713.512024,538.079529 713.317261,538.937622 
z"/>
<path fill="#0A0A0A" opacity="1.000000" stroke="none" 
	d="
M684.469543,566.042969 
	C684.620789,566.494812 684.510986,567.072571 684.285889,567.917236 
	C683.613708,568.350464 683.056824,568.516907 682.204224,568.682861 
	C682.675293,567.844543 683.441895,567.006714 684.469543,566.042969 
z"/>
<path fill="#0A0A0A" opacity="1.000000" stroke="none" 
	d="
M658.538818,592.069397 
	C658.738708,592.310120 658.720276,592.687500 658.660889,593.343018 
	C658.244202,593.655640 657.868469,593.690186 657.208374,593.709351 
	C657.389526,593.198120 657.855042,592.702087 658.538818,592.069397 
z"/>
<path fill="#BABABA" opacity="1.000000" stroke="none" 
	d="
M418.685181,541.389893 
	C400.597198,522.933105 382.729523,504.764526 364.927490,486.531891 
	C346.897156,468.065521 328.930328,449.537170 310.942749,431.029114 
	C310.131592,430.194519 309.118317,429.409698 308.680420,428.394226 
	C308.060486,426.956451 307.181915,424.963989 307.734253,423.883728 
	C308.236053,422.902435 310.502350,422.408112 311.991638,422.406219 
	C435.120056,422.250793 558.248535,422.164856 681.377014,422.072662 
	C690.541016,422.065826 699.708130,421.920746 708.866638,422.138519 
	C710.925415,422.187469 712.954346,423.490021 714.997009,424.215485 
	C714.124451,426.231659 713.748840,428.744598 712.304688,430.189484 
	C690.871704,451.633545 669.239563,472.878387 647.766663,494.282745 
	C576.728333,565.094299 505.734924,635.950867 434.727478,706.793335 
	C432.725525,708.790649 430.950806,711.072205 428.731476,712.781494 
	C425.656067,715.149963 423.421722,714.009705 422.993408,710.134705 
	C422.865875,708.980957 422.926178,707.804749 422.926086,706.638794 
	C422.922394,656.652893 422.921356,606.666931 422.921021,556.681030 
	C422.920990,551.317383 422.968079,545.942993 418.685181,541.389893 
M426.562714,685.500000 
	C427.038208,693.136780 425.573364,700.904968 427.670715,709.565796 
	C429.694519,707.802673 430.956055,706.825806 432.077393,705.708191 
	C446.705292,691.130066 461.329010,676.547668 475.923248,661.935791 
	C512.540588,625.274353 549.102600,588.557495 585.761047,551.937195 
	C625.727051,512.012817 665.787659,472.183075 705.739258,432.244263 
	C706.991516,430.992401 707.494202,428.990723 708.346375,427.338623 
	C706.655396,426.944153 704.964172,426.205811 703.273499,426.206879 
	C678.457520,426.222351 653.641663,426.403473 628.825684,426.415161 
	C525.998230,426.463684 423.170746,426.463898 320.343292,426.516907 
	C318.143921,426.518036 315.944763,426.940552 312.495178,427.294952 
	C314.204498,429.610352 314.994324,430.988068 316.068542,432.088104 
	C328.405609,444.722168 340.797119,457.303070 353.152283,469.919556 
	C374.249817,491.463257 395.293884,513.059570 416.441742,534.553711 
	C423.440887,541.667480 426.859497,549.647766 426.750549,560.008850 
	C426.314331,601.501953 426.564240,643.002319 426.562714,685.500000 
z"/>
<path fill="#CCCCCC" opacity="1.000000" stroke="none" 
	d="
M876.300476,750.586060 
	C877.306641,752.269226 877.951904,753.996216 879.111145,755.246643 
	C882.734802,759.154968 886.684326,762.766174 890.222351,766.746033 
	C891.430420,768.104919 891.794250,770.214478 892.543823,771.981079 
	C890.752625,772.528687 888.964111,773.544312 887.169983,773.554321 
	C856.178223,773.726929 825.185852,773.822449 794.193542,773.843201 
	C694.545715,773.909790 594.897827,773.938782 495.250000,773.981812 
	C494.250244,773.982300 493.195007,774.178833 492.263885,773.924377 
	C490.918182,773.556702 488.697449,773.014893 488.577972,772.270203 
	C488.358795,770.904236 489.075562,769.079651 489.993622,767.910950 
	C491.416626,766.099487 493.387177,764.729187 495.037018,763.083130 
	C556.023254,702.238220 617.007080,641.390808 677.973389,580.525940 
	C709.102783,549.448364 740.178711,518.317078 771.376160,487.308014 
	C772.730835,485.961517 775.063110,485.598541 776.939941,484.777405 
	C777.481262,486.402710 778.493958,488.027985 778.494019,489.653290 
	C778.495728,519.643982 778.347290,549.634583 778.293396,579.625305 
	C778.259827,598.288269 778.805725,616.967346 778.175232,635.608276 
	C777.801331,646.666077 781.535767,654.922607 789.274902,662.607239 
	C810.308777,683.492676 830.825745,704.898315 851.570496,726.075317 
	C856.924438,731.540894 862.362732,736.923950 868.211426,742.780396 
	C871.072693,745.505432 873.484680,747.794922 875.896667,750.084412 
	C875.896667,750.084412 876.174805,750.411865 876.300476,750.586060 
M691.145996,770.003113 
	C695.136108,769.807495 699.126221,769.443359 703.116394,769.441650 
	C761.603149,769.416138 820.089905,769.446106 878.576660,769.425049 
	C881.055481,769.424194 883.534180,769.055725 887.460571,768.743347 
	C884.634033,765.442322 883.020569,763.378174 881.223022,761.489197 
	C871.825317,751.613220 862.467163,741.697327 852.935059,731.952026 
	C831.524536,710.062622 810.152100,688.132874 788.488159,666.495911 
	C779.784058,657.802612 774.575073,648.788269 774.804932,635.507874 
	C775.612366,588.865845 775.117065,542.201111 775.096069,495.545044 
	C775.095276,493.804810 774.884216,492.064636 774.693909,489.136749 
	C772.341309,490.795319 770.753235,491.602112 769.560852,492.802124 
	C749.988403,512.501160 730.533630,532.317505 710.911926,551.967163 
	C693.291687,569.612610 675.466553,587.053223 657.792358,604.645020 
	C630.796570,631.514893 603.841248,658.425415 576.890869,685.340881 
	C555.569885,706.634338 534.282227,727.961182 512.979919,749.273376 
	C508.157043,754.098511 503.283936,758.875305 498.554993,763.790833 
	C497.610931,764.772278 497.218292,766.284302 496.571350,767.551636 
	C497.995758,768.178345 499.374451,768.974243 500.859741,769.375610 
	C501.948517,769.669861 503.177185,769.453125 504.343506,769.452942 
	C527.151978,769.449646 549.960754,769.369995 572.768860,769.456726 
	C611.913147,769.605591 651.056946,769.858154 691.145996,770.003113 
z"/>
<path fill="#545454" opacity="1.000000" stroke="none" 
	d="
M492.374817,777.197266 
	C494.289307,776.726685 496.575775,776.173889 498.862549,776.172607 
	C628.732910,776.099915 758.603333,776.074097 888.473694,776.037048 
	C891.937195,776.036072 895.787292,776.706604 896.803955,771.410156 
	C900.156311,774.060974 898.472107,776.137573 895.374451,777.339233 
	C893.596436,778.028931 891.442139,777.884644 889.457153,777.885071 
	C760.032837,777.914856 630.608582,777.924561 501.184265,777.906006 
	C498.371796,777.905579 495.559387,777.557983 492.374817,777.197266 
z"/>
<path fill="#545454" opacity="1.000000" stroke="none" 
	d="
M485.684937,768.142273 
	C485.244934,771.071228 483.012726,774.421143 487.773438,776.771667 
	C486.229706,776.369141 484.460114,775.731567 482.690491,775.093933 
	C483.587341,772.826538 484.484192,770.559143 485.684937,768.142273 
z"/>
<path fill="#858585" opacity="1.000000" stroke="none" 
	d="
M875.966064,749.733398 
	C873.484680,747.794922 871.072693,745.505432 868.513794,742.923035 
	C868.497375,742.499634 868.627869,742.369263 869.211426,742.196533 
	C870.357727,742.526428 871.051086,742.898682 871.744385,743.270935 
	C873.174805,745.308105 874.605164,747.345276 875.966064,749.733398 
z"/>
<path fill="#545454" opacity="1.000000" stroke="none" 
	d="
M867.097290,738.459656 
	C866.127808,737.787415 865.080627,736.795898 863.920349,735.511475 
	C864.877991,736.192505 865.948730,737.166443 867.097290,738.459656 
z"/>
<path fill="#545454" opacity="1.000000" stroke="none" 
	d="
M871.677551,742.946533 
	C871.051086,742.898682 870.357727,742.526428 869.409668,742.003418 
	C868.893250,741.356873 868.631531,740.860962 868.299683,740.093018 
	C869.356567,740.754700 870.483643,741.688416 871.677551,742.946533 
z"/>
<path fill="#545454" opacity="1.000000" stroke="none" 
	d="
M863.689087,734.909607 
	C863.020813,734.587891 862.253235,733.977539 861.389404,733.079285 
	C862.058655,733.401184 862.824158,734.011108 863.689087,734.909607 
z"/>
<path fill="#545454" opacity="1.000000" stroke="none" 
	d="
M498.955719,755.308960 
	C498.713593,755.782898 498.184448,756.344482 497.375610,757.003296 
	C497.620178,756.532532 498.144440,755.964539 498.955719,755.308960 
z"/>
<path fill="#545454" opacity="1.000000" stroke="none" 
	d="
M496.825867,757.215149 
	C496.647858,757.719299 496.194855,758.342896 495.478302,759.100464 
	C495.660095,758.601196 496.105499,757.967896 496.825867,757.215149 
z"/>
<path fill="#545454" opacity="1.000000" stroke="none" 
	d="
M896.595703,770.053467 
	C896.163574,769.734375 895.707031,769.113647 895.206482,768.199646 
	C895.632080,768.521484 896.101685,769.136597 896.595703,770.053467 
z"/>
<path fill="#333333" opacity="1.000000" stroke="none" 
	d="
M733.251709,520.857910 
	C733.998413,519.551941 735.086609,518.249573 736.510254,516.918579 
	C735.761536,518.213806 734.677307,519.537598 733.251709,520.857910 
z"/>
<path fill="#333333" opacity="1.000000" stroke="none" 
	d="
M767.289124,486.920227 
	C768.005371,485.611053 769.061523,484.288788 770.450195,482.928040 
	C769.731506,484.228729 768.680237,485.567963 767.289124,486.920227 
z"/>
<path fill="#FDFDFD" opacity="1.000000" stroke="none" 
	d="
M426.561523,685.000000 
	C426.564240,643.002319 426.314331,601.501953 426.750549,560.008850 
	C426.859497,549.647766 423.440887,541.667480 416.441742,534.553711 
	C395.293884,513.059570 374.249817,491.463257 353.152283,469.919556 
	C340.797119,457.303070 328.405609,444.722168 316.068542,432.088104 
	C314.994324,430.988068 314.204498,429.610352 312.495178,427.294952 
	C315.944763,426.940552 318.143921,426.518036 320.343292,426.516907 
	C423.170746,426.463898 525.998230,426.463684 628.825684,426.415161 
	C653.641663,426.403473 678.457520,426.222351 703.273499,426.206879 
	C704.964172,426.205811 706.655396,426.944153 708.346375,427.338623 
	C707.494202,428.990723 706.991516,430.992401 705.739258,432.244263 
	C665.787659,472.183075 625.727051,512.012817 585.761047,551.937195 
	C549.102600,588.557495 512.540588,625.274353 475.923248,661.935791 
	C461.329010,676.547668 446.705292,691.130066 432.077393,705.708191 
	C430.956055,706.825806 429.694519,707.802673 427.670715,709.565796 
	C425.573364,700.904968 427.038208,693.136780 426.561523,685.000000 
z"/>
<path fill="#FEFEFE" opacity="1.000000" stroke="none" 
	d="
M690.673462,770.035156 
	C651.056946,769.858154 611.913147,769.605591 572.768860,769.456726 
	C549.960754,769.369995 527.151978,769.449646 504.343506,769.452942 
	C503.177185,769.453125 501.948517,769.669861 500.859741,769.375610 
	C499.374451,768.974243 497.995758,768.178345 496.571350,767.551636 
	C497.218292,766.284302 497.610931,764.772278 498.554993,763.790833 
	C503.283936,758.875305 508.157043,754.098511 512.979919,749.273376 
	C534.282227,727.961182 555.569885,706.634338 576.890869,685.340881 
	C603.841248,658.425415 630.796570,631.514893 657.792358,604.645020 
	C675.466553,587.053223 693.291687,569.612610 710.911926,551.967163 
	C730.533630,532.317505 749.988403,512.501160 769.560852,492.802124 
	C770.753235,491.602112 772.341309,490.795319 774.693909,489.136749 
	C774.884216,492.064636 775.095276,493.804810 775.096069,495.545044 
	C775.117065,542.201111 775.612366,588.865845 774.804932,635.507874 
	C774.575073,648.788269 779.784058,657.802612 788.488159,666.495911 
	C810.152100,688.132874 831.524536,710.062622 852.935059,731.952026 
	C862.467163,741.697327 871.825317,751.613220 881.223022,761.489197 
	C883.020569,763.378174 884.634033,765.442322 887.460571,768.743347 
	C883.534180,769.055725 881.055481,769.424194 878.576660,769.425049 
	C820.089905,769.446106 761.603149,769.416138 703.116394,769.441650 
	C699.126221,769.443359 695.136108,769.807495 690.673462,770.035156 
z"/>
</svg>